<svg xmlns="http://www.w3.org/2000/svg" width="600" height="364" viewBox="0 0 600 364" role="img" aria-label="RadarScope: a radar-style plan-position indicator for live air traffic over ADS-B, with a rotating sweep and a heading glyph per aircraft.">
<title>RadarScope: a radar-style plan-position indicator for live air traffic over ADS-B, with a rotating sweep and a heading glyph per aircraft.</title>
<style>
text{font-family:-apple-system,BlinkMacSystemFont,'Segoe UI',Helvetica,Arial,sans-serif}
.mono{font-family:ui-monospace,SFMono-Regular,Menlo,Consolas,'Liberation Mono',monospace}
.fade{animation:fade .7s ease both}
@keyframes fade{from{opacity:0}}

.sweep{transform-box:view-box;transform-origin:116px 82px;animation:spin 4.0s linear infinite}
@keyframes spin{to{transform:rotate(360deg)}}
.blip{animation:blip 4.0s linear infinite}
@keyframes blip{0%{opacity:1}65%,100%{opacity:.2}}
.row{animation:row 4.0s linear infinite}
@keyframes row{0%{fill:#FFB020}30%,100%{fill:#8B9BB4}}
@media (prefers-reduced-motion:reduce){*{animation:none!important}}
</style>
<defs><pattern id="cg-m" width="20" height="20" patternUnits="userSpaceOnUse"><path d="M20 0H0V20" fill="none" stroke="#1E2E4A" stroke-opacity=".5"/></pattern><pattern id="cg" width="100" height="100" patternUnits="userSpaceOnUse"><rect width="100" height="100" fill="url(#cg-m)"/><path d="M100 0H0V100" fill="none" stroke="#1E2E4A"/></pattern><clipPath id="card"><rect width="600" height="364" rx="16"/></clipPath><clipPath id="band"><rect width="600" height="160"/></clipPath></defs>

<g clip-path="url(#card)">
<rect width="600" height="364" fill="#0E1729"/>
<rect width="600" height="160" fill="#0B1220"/>
<rect width="600" height="160" fill="url(#cg)" opacity=".7"/>
<g clip-path="url(#band)"><circle cx="116" cy="82" r="64" fill="#4DA3FF" fill-opacity=".04"/><circle cx="116" cy="82" r="21.3" fill="none" stroke="#4DA3FF" stroke-opacity=".28"/><circle cx="116" cy="82" r="42.7" fill="none" stroke="#4DA3FF" stroke-opacity=".28"/><circle cx="116" cy="82" r="64.0" fill="none" stroke="#4DA3FF" stroke-opacity=".28"/><path d="M52 82H180M116 18V146" stroke="#4DA3FF" stroke-opacity=".16"/><path d="M116.0 18.0L116.0 13.0" stroke="#4DA3FF" stroke-opacity=".45"/><path d="M148.0 26.6L150.5 22.2" stroke="#4DA3FF" stroke-opacity=".45"/><path d="M171.4 50.0L175.8 47.5" stroke="#4DA3FF" stroke-opacity=".45"/><path d="M180.0 82.0L185.0 82.0" stroke="#4DA3FF" stroke-opacity=".45"/><path d="M171.4 114.0L175.8 116.5" stroke="#4DA3FF" stroke-opacity=".45"/><path d="M148.0 137.4L150.5 141.8" stroke="#4DA3FF" stroke-opacity=".45"/><path d="M116.0 146.0L116.0 151.0" stroke="#4DA3FF" stroke-opacity=".45"/><path d="M84.0 137.4L81.5 141.8" stroke="#4DA3FF" stroke-opacity=".45"/><path d="M60.6 114.0L56.2 116.5" stroke="#4DA3FF" stroke-opacity=".45"/><path d="M52.0 82.0L47.0 82.0" stroke="#4DA3FF" stroke-opacity=".45"/><path d="M60.6 50.0L56.2 47.5" stroke="#4DA3FF" stroke-opacity=".45"/><path d="M84.0 26.6L81.5 22.2" stroke="#4DA3FF" stroke-opacity=".45"/><g class="sweep"><path d="M116 82L112.65 18.09A64 64 0 0 1 116.00 18.00Z" fill="#4DA3FF" fill-opacity="0.320"/><path d="M116 82L109.31 18.35A64 64 0 0 1 112.65 18.09Z" fill="#4DA3FF" fill-opacity="0.307"/><path d="M116 82L105.99 18.79A64 64 0 0 1 109.31 18.35Z" fill="#4DA3FF" fill-opacity="0.293"/><path d="M116 82L102.69 19.40A64 64 0 0 1 105.99 18.79Z" fill="#4DA3FF" fill-opacity="0.280"/><path d="M116 82L99.44 20.18A64 64 0 0 1 102.69 19.40Z" fill="#4DA3FF" fill-opacity="0.267"/><path d="M116 82L96.22 21.13A64 64 0 0 1 99.44 20.18Z" fill="#4DA3FF" fill-opacity="0.253"/><path d="M116 82L93.06 22.25A64 64 0 0 1 96.22 21.13Z" fill="#4DA3FF" fill-opacity="0.240"/><path d="M116 82L89.97 23.53A64 64 0 0 1 93.06 22.25Z" fill="#4DA3FF" fill-opacity="0.227"/><path d="M116 82L86.94 24.98A64 64 0 0 1 89.97 23.53Z" fill="#4DA3FF" fill-opacity="0.213"/><path d="M116 82L84.00 26.57A64 64 0 0 1 86.94 24.98Z" fill="#4DA3FF" fill-opacity="0.200"/><path d="M116 82L81.14 28.33A64 64 0 0 1 84.00 26.57Z" fill="#4DA3FF" fill-opacity="0.187"/><path d="M116 82L78.38 30.22A64 64 0 0 1 81.14 28.33Z" fill="#4DA3FF" fill-opacity="0.173"/><path d="M116 82L75.72 32.26A64 64 0 0 1 78.38 30.22Z" fill="#4DA3FF" fill-opacity="0.160"/><path d="M116 82L73.18 34.44A64 64 0 0 1 75.72 32.26Z" fill="#4DA3FF" fill-opacity="0.147"/><path d="M116 82L70.75 36.75A64 64 0 0 1 73.18 34.44Z" fill="#4DA3FF" fill-opacity="0.133"/><path d="M116 82L68.44 39.18A64 64 0 0 1 70.75 36.75Z" fill="#4DA3FF" fill-opacity="0.120"/><path d="M116 82L66.26 41.72A64 64 0 0 1 68.44 39.18Z" fill="#4DA3FF" fill-opacity="0.107"/><path d="M116 82L64.22 44.38A64 64 0 0 1 66.26 41.72Z" fill="#4DA3FF" fill-opacity="0.093"/><path d="M116 82L62.33 47.14A64 64 0 0 1 64.22 44.38Z" fill="#4DA3FF" fill-opacity="0.080"/><path d="M116 82L60.57 50.00A64 64 0 0 1 62.33 47.14Z" fill="#4DA3FF" fill-opacity="0.067"/><path d="M116 82L58.98 52.94A64 64 0 0 1 60.57 50.00Z" fill="#4DA3FF" fill-opacity="0.053"/><path d="M116 82L57.53 55.97A64 64 0 0 1 58.98 52.94Z" fill="#4DA3FF" fill-opacity="0.040"/><path d="M116 82L56.25 59.06A64 64 0 0 1 57.53 55.97Z" fill="#4DA3FF" fill-opacity="0.027"/><path d="M116 82L55.13 62.22A64 64 0 0 1 56.25 59.06Z" fill="#4DA3FF" fill-opacity="0.013"/><path d="M116 82V18" stroke="#4DA3FF" stroke-width="1.5"/></g><circle cx="116" cy="82" r="2.5" fill="#4DA3FF"/><text class="mono" x="236" y="30" font-size="11.5" letter-spacing="1" fill="#5A6C8C">CALLSIGN</text><text class="mono" x="326" y="30" font-size="11.5" letter-spacing="1" fill="#5A6C8C">LEVEL</text><text class="mono" x="390" y="30" font-size="11.5" letter-spacing="1" fill="#5A6C8C">HDG</text><text class="mono" x="446" y="30" font-size="11.5" letter-spacing="1" fill="#5A6C8C">RNG</text><circle cx="524" cy="26" r="3.5" fill="#3DDC97"/><text class="mono" x="576" y="30" text-anchor="end" font-size="11.5" letter-spacing="1" fill="#3DDC97">ADS-B</text><g class="blip" style="animation-delay:-3.56s" transform="translate(141.5 51.6) rotate(220)"><path d="M0 -6L4.5 5L0 2.5L-4.5 5Z" fill="#FFB020"/></g><text class="mono row" style="animation-delay:-3.56s" x="236" y="58" font-size="14" fill="#8B9BB4">BAW283</text><text class="mono row" style="animation-delay:-3.56s" x="326" y="58" font-size="14" fill="#8B9BB4">FL360</text><text class="mono row" style="animation-delay:-3.56s" x="390" y="58" font-size="14" fill="#8B9BB4">220°</text><text class="mono row" style="animation-delay:-3.56s" x="446" y="58" font-size="14" fill="#8B9BB4">25nm</text><g class="blip" style="animation-delay:-2.39s" transform="translate(132.5 105.6) rotate(300)"><path d="M0 -6L4.5 5L0 2.5L-4.5 5Z" fill="#FFB020"/></g><text class="mono row" style="animation-delay:-2.39s" x="236" y="84" font-size="14" fill="#8B9BB4">EZY84KT</text><text class="mono row" style="animation-delay:-2.39s" x="326" y="84" font-size="14" fill="#8B9BB4">FL120</text><text class="mono row" style="animation-delay:-2.39s" x="390" y="84" font-size="14" fill="#8B9BB4">300°</text><text class="mono row" style="animation-delay:-2.39s" x="446" y="84" font-size="14" fill="#8B9BB4">18nm</text><g class="blip" style="animation-delay:-1.22s" transform="translate(67.9 99.5) rotate(80)"><path d="M0 -6L4.5 5L0 2.5L-4.5 5Z" fill="#FFB020"/></g><text class="mono row" style="animation-delay:-1.22s" x="236" y="110" font-size="14" fill="#8B9BB4">RYR5TP</text><text class="mono row" style="animation-delay:-1.22s" x="326" y="110" font-size="14" fill="#8B9BB4">FL090</text><text class="mono row" style="animation-delay:-1.22s" x="390" y="110" font-size="14" fill="#8B9BB4">080°</text><text class="mono row" style="animation-delay:-1.22s" x="446" y="110" font-size="14" fill="#8B9BB4">32nm</text><g class="blip" style="animation-delay:-0.47s" transform="translate(102.3 66.8) rotate(140)"><path d="M0 -6L4.5 5L0 2.5L-4.5 5Z" fill="#FFB020"/></g><text class="mono row" style="animation-delay:-0.47s" x="236" y="136" font-size="14" fill="#8B9BB4">VIR3N</text><text class="mono row" style="animation-delay:-0.47s" x="326" y="136" font-size="14" fill="#8B9BB4">FL240</text><text class="mono row" style="animation-delay:-0.47s" x="390" y="136" font-size="14" fill="#8B9BB4">140°</text><text class="mono row" style="animation-delay:-0.47s" x="446" y="136" font-size="14" fill="#8B9BB4">13nm</text></g>
<path d="M0 160.5H600" stroke="#1E2E4A"/>
</g>
<rect x=".5" y=".5" width="599" height="363" rx="16" fill="none" stroke="#1E2E4A"/>
<text class="mono" x="28" y="198" font-size="13" letter-spacing="1.2" fill="#4DA3FF">REAL-TIME · ADS-B · NO ML ANYWHERE</text>
<rect x="460.3" y="181" width="111.7" height="24" rx="12" fill="#3DDC97" fill-opacity=".08" stroke="#3DDC97" stroke-opacity=".4"/>
<text class="mono" x="516.1" y="197" text-anchor="middle" font-size="11.5" letter-spacing=".6" fill="#3DDC97">PUBLIC REPO ↗</text>
<text x="28" y="238" font-size="28" font-weight="700" letter-spacing="-.4" fill="#E6EDF7">RadarScope</text>
<text x="28" y="268" font-size="16.5" fill="#8B9BB4">A plan-position indicator for the traffic overhead: range</text>
<text x="28" y="292" font-size="16.5" fill="#8B9BB4">rings, a sweep, and a glyph for every aircraft's heading.</text>
<g class="fade" style="animation-delay:0.30s"><rect x="28.0" y="312.0" width="70.6" height="30" rx="15.0" fill="#14223A" stroke="#1E2E4A"/><text class="mono" x="63.3" y="331.7" text-anchor="middle" font-size="13.5" fill="#E6EDF7">Python</text></g><g class="fade" style="animation-delay:0.37s"><rect x="106.6" y="312.0" width="78.7" height="30" rx="15.0" fill="#14223A" stroke="#1E2E4A"/><text class="mono" x="145.9" y="331.7" text-anchor="middle" font-size="13.5" fill="#E6EDF7">FastAPI</text></g><g class="fade" style="animation-delay:0.44s"><rect x="193.3" y="312.0" width="70.6" height="30" rx="15.0" fill="#14223A" stroke="#1E2E4A"/><text class="mono" x="228.6" y="331.7" text-anchor="middle" font-size="13.5" fill="#E6EDF7">Canvas</text></g><g class="fade" style="animation-delay:0.51s"><rect x="271.9" y="312.0" width="78.7" height="30" rx="15.0" fill="#14223A" stroke="#1E2E4A"/><text class="mono" x="311.2" y="331.7" text-anchor="middle" font-size="13.5" fill="#E6EDF7">OpenSky</text></g>

</svg>
